# xmcd
#
# Track frame offsets:
#	150
#	14597
#	32545
#	43988
#	60859
#	80550
#	96559
#	112652
#	130488
#	149279
#	164492
#	179642
#	197663
#
# Disc length: 2959 seconds
#
# Revision: 0
# Processed by: cddbd v1.5.2PL0 Copyright (c) Steve Scherf et al.
# Submitted via: EasyCDDAExtractor 2010.4.0.0
#
DISCID=b60b8d0d
DTITLE=The Bowling Family - Shine
DYEAR=2010
DGENRE=CCM
TTITLE0=Sunshine On A Rainy Day
TTITLE1=How Blessed
TTITLE2=Sailing On Home
TTITLE3=When We Need  It Most
TTITLE4=This Is Your Moment
TTITLE5=Run And Tell
TTITLE6=Tell Them That I Love Them
TTITLE7=He Did
TTITLE8=He Already Knows
TTITLE9=Pray Anyway
TTITLE10=Half That's Never Been Told
TTITLE11=He Leads Me Each Steo Of the Way
TTITLE12=I Still Glory In The Cross
EXTD=
EXTT0=
EXTT1=
EXTT2=
EXTT3=
EXTT4=
EXTT5=
EXTT6=
EXTT7=
EXTT8=
EXTT9=
EXTT10=
EXTT11=
EXTT12=
PLAYORDER=
